<?xml version="1.0"?>
<svg xmlns="http://www.w3.org/2000/svg" viewBox="0 0 26 26">
    <path d="M 9.03125 0.0625 C 8.70725 0.0625 8.43325 0.08875 8.15625 0.09375 L 8.15625 5.9375 C 8.15425 6.2665 7.847 6.53225 7.5 6.53125 C 7.153 6.53125 6.875 6.2655 6.875 5.9375 L 6.875 0.125 C 5.853 0.193 5.34375 0.3125 5.34375 0.3125 C 5.34375 0.3125 5.09575 4.93575 5.09375 7.59375 C 5.09375 10.55875 7.96875 10.582 7.96875 11.75 C 7.96675 12.915 7.09375 17.73775 7.09375 20.46875 C 7.09375 25.47175 8.135 25.874 9 25.875 C 9.865 25.877 10.9395 25.47175 10.9375 20.46875 C 10.9395 17.73975 10.03125 12.916 10.03125 11.75 C 10.02925 10.582 12.90425 10.60075 12.90625 7.59375 C 12.90625 5.84675 12.65625 0.3125 12.65625 0.3125 C 12.65625 0.3125 12.169 0.192 11.125 0.125 L 11.125 6 C 11.125 6.33 10.847 6.59575 10.5 6.59375 C 10.152 6.59375 9.84375 6.33 9.84375 6 L 9.84375 0.09375 C 9.58775 0.08675 9.32325 0.0645 9.03125 0.0625 z M 18.875 0.1875 C 13.62 0.1875 14.0645 6.49725 14.0625 8.40625 C 14.0665 11.69225 17.0645 12.5235 17.0625 14.6875 C 17.0625 15.9625 16.0645 17.11275 16.0625 20.09375 C 16.0625 25.56575 16.927 25.875 18 25.875 C 19.069 25.873 19.9365 25.56575 19.9375 20.09375 C 19.9375 17.11175 19.125 13.43225 19.125 12.15625 C 19.126 10.88225 18.875 9.47175 18.875 6.59375 L 18.875 0.1875 z"/>
</svg>
